<svg width="110" height="40" viewBox="0 0 110 40" fill="none" xmlns="http://www.w3.org/2000/svg">
<path d="M3.97076 39.4927V10.019C3.97076 6.77235 4.95915 4.29507 6.93594 2.58719C8.91273 0.862397 11.5771 0 14.929 0C15.7026 0 16.4331 0.0591841 17.1207 0.177552C17.8083 0.279011 18.4701 0.405834 19.1061 0.558022L19.1576 7.55866C18.8654 7.47411 18.556 7.41492 18.2294 7.3811C17.9028 7.34728 17.516 7.33037 17.0691 7.33037C15.8659 7.33037 14.9376 7.56711 14.2844 8.04058C13.6312 8.49715 13.3046 9.15663 13.3046 10.019V39.4927H3.97076ZM18.5646 18.643H0V12.0482H18.5646V18.643Z" fill="#4177F6"/>
<path d="M29.6147 39.4927H20.3066V12.0482H29.6147V39.4927ZM19.7909 5.09829C19.7909 3.74551 20.2636 2.64637 21.209 1.80089C22.1544 0.9554 23.3835 0.532657 24.8962 0.532657C26.426 0.532657 27.6551 0.9554 28.5833 1.80089C29.5287 2.64637 30.0014 3.74551 30.0014 5.09829C30.0014 6.43416 29.5287 7.53329 28.5833 8.39569C27.6551 9.24117 26.426 9.66392 24.8962 9.66392C23.3835 9.66392 22.1544 9.24117 21.209 8.39569C20.2636 7.53329 19.7909 6.43416 19.7909 5.09829Z" fill="#4177F6"/>
<path d="M48.4515 12.0482H58.2237L49.2508 39.4927H43.4752L43.3205 33.1008L48.4515 12.0482ZM45.6411 33.0755L45.5379 39.4927H39.7623L30.7894 12.0482H40.6132L45.6411 33.0755Z" fill="#4177F6"/>
<path d="M72.8062 40C69.7121 40 67.0735 39.3828 64.8905 38.1484C62.7246 36.914 61.0744 35.2906 59.9399 33.2784C58.8054 31.2492 58.2382 29.0594 58.2382 26.7089V25.7704C58.2382 23.1494 58.7367 20.7652 59.7337 18.6176C60.7306 16.4532 62.2347 14.7368 64.2459 13.4686C66.257 12.1835 68.7839 11.5409 71.8264 11.5409C74.5252 11.5409 76.8285 12.0905 78.7366 13.1896C80.6446 14.2718 82.1057 15.8275 83.1199 17.8567C84.1512 19.8689 84.6669 22.2786 84.6669 25.0856V28.9157H61.719V23.0564H75.5909V22.3209C75.6081 21.5261 75.4706 20.8751 75.1784 20.3678C74.8861 19.8605 74.4478 19.4885 73.8634 19.2517C73.2961 19.015 72.5914 18.8966 71.7491 18.8966C70.5458 18.8966 69.6434 19.2264 69.0417 19.8859C68.4401 20.5453 68.0361 21.3993 67.8299 22.4477C67.6236 23.4792 67.5205 24.5868 67.5205 25.7704V26.7089C67.5205 27.9264 67.7525 28.9833 68.2166 29.8795C68.6808 30.7588 69.3511 31.4352 70.2278 31.9087C71.1217 32.3822 72.1874 32.6189 73.425 32.6189C74.5595 32.6189 75.694 32.4244 76.8285 32.0355C77.9802 31.6466 78.9514 30.9617 79.7422 29.981L83.9192 35.2314C83.0597 36.4151 81.6674 37.5058 79.7422 38.5035C77.8341 39.5012 75.5222 40 72.8062 40Z" fill="#4177F6"/>
<path d="M100.745 31.655C100.745 31.2323 100.59 30.8856 100.281 30.6151C99.9886 30.3445 99.4643 30.0909 98.708 29.8542C97.9516 29.6005 96.8859 29.33 95.5107 29.0425C93.723 28.6536 92.0814 28.104 90.586 27.3938C89.0905 26.6667 87.8958 25.7282 87.002 24.5783C86.1253 23.4284 85.687 22.0419 85.687 20.4185C85.687 18.8459 86.1425 17.3832 87.0535 16.0304C87.9646 14.6777 89.2882 13.5954 91.0243 12.7838C92.7604 11.9552 94.8661 11.5409 97.3414 11.5409C99.8854 11.5409 102.086 11.9214 103.942 12.6823C105.799 13.4432 107.225 14.5001 108.222 15.8529C109.236 17.2057 109.744 18.7867 109.744 20.5961H100.461C100.461 19.5984 100.229 18.8713 99.7651 18.4147C99.301 17.9581 98.4845 17.7299 97.3156 17.7299C96.8343 17.7299 96.3702 17.8144 95.9233 17.9835C95.4935 18.1526 95.1412 18.3978 94.8661 18.7191C94.6083 19.0404 94.4794 19.4462 94.4794 19.9366C94.4794 20.3593 94.6341 20.7398 94.9435 21.078C95.2701 21.3993 95.7514 21.6783 96.3874 21.915C97.0234 22.1518 97.8313 22.3462 98.8111 22.4984C100.65 22.8028 102.395 23.2594 104.045 23.8681C105.713 24.4769 107.071 25.3731 108.119 26.5568C109.168 27.7404 109.692 29.3553 109.692 31.4014C109.692 33.0247 109.185 34.4874 108.171 35.7895C107.174 37.0915 105.747 38.123 103.891 38.884C102.034 39.628 99.8425 40 97.3156 40C94.5997 40 92.3135 39.5181 90.457 38.5542C88.6006 37.5904 87.191 36.3813 86.2284 34.9271C85.283 33.4559 84.8103 31.9848 84.8103 30.5136H93.4738C93.5082 31.2408 93.6886 31.8495 94.0152 32.3399C94.359 32.8134 94.8317 33.1769 95.4334 33.4306C96.035 33.6673 96.7484 33.7857 97.5735 33.7857C98.2782 33.7857 98.8627 33.7011 99.3268 33.532C99.7909 33.3629 100.143 33.1177 100.384 32.7964C100.625 32.4752 100.745 32.0947 100.745 31.655Z" fill="#4177F6"/>
<path d="M3.97076 39.4927V10.019C3.97076 6.77235 4.95915 4.29507 6.93594 2.58719C8.91273 0.862397 11.5771 0 14.929 0C15.7026 0 16.4331 0.0591841 17.1207 0.177552C17.8083 0.279011 18.4701 0.405834 19.1061 0.558022L19.1576 7.55866C18.8654 7.47411 18.556 7.41492 18.2294 7.3811C17.9028 7.34728 17.516 7.33037 17.0691 7.33037C15.8659 7.33037 14.9376 7.56711 14.2844 8.04058C13.6312 8.49715 13.3046 9.15663 13.3046 10.019V39.4927H3.97076ZM18.5646 18.643H0V12.0482H18.5646V18.643Z" fill="url(#paint0_linear_309_2299)"/>
<path d="M29.6147 39.4927H20.3066V12.0482H29.6147V39.4927ZM19.7909 5.09829C19.7909 3.74551 20.2636 2.64637 21.209 1.80089C22.1544 0.9554 23.3835 0.532657 24.8962 0.532657C26.426 0.532657 27.6551 0.9554 28.5833 1.80089C29.5287 2.64637 30.0014 3.74551 30.0014 5.09829C30.0014 6.43416 29.5287 7.53329 28.5833 8.39569C27.6551 9.24117 26.426 9.66392 24.8962 9.66392C23.3835 9.66392 22.1544 9.24117 21.209 8.39569C20.2636 7.53329 19.7909 6.43416 19.7909 5.09829Z" fill="url(#paint1_linear_309_2299)"/>
<path d="M48.4515 12.0482H58.2237L49.2508 39.4927H43.4752L43.3205 33.1008L48.4515 12.0482ZM45.6411 33.0755L45.5379 39.4927H39.7623L30.7894 12.0482H40.6132L45.6411 33.0755Z" fill="url(#paint2_linear_309_2299)"/>
<path d="M72.8062 40C69.7121 40 67.0735 39.3828 64.8905 38.1484C62.7246 36.914 61.0744 35.2906 59.9399 33.2784C58.8054 31.2492 58.2382 29.0594 58.2382 26.7089V25.7704C58.2382 23.1494 58.7367 20.7652 59.7337 18.6176C60.7306 16.4532 62.2347 14.7368 64.2459 13.4686C66.257 12.1835 68.7839 11.5409 71.8264 11.5409C74.5252 11.5409 76.8285 12.0905 78.7366 13.1896C80.6446 14.2718 82.1057 15.8275 83.1199 17.8567C84.1512 19.8689 84.6669 22.2786 84.6669 25.0856V28.9157H61.719V23.0564H75.5909V22.3209C75.6081 21.5261 75.4706 20.8751 75.1784 20.3678C74.8861 19.8605 74.4478 19.4885 73.8634 19.2517C73.2961 19.015 72.5914 18.8966 71.7491 18.8966C70.5458 18.8966 69.6434 19.2264 69.0417 19.8859C68.4401 20.5453 68.0361 21.3993 67.8299 22.4477C67.6236 23.4792 67.5205 24.5868 67.5205 25.7704V26.7089C67.5205 27.9264 67.7525 28.9833 68.2166 29.8795C68.6808 30.7588 69.3511 31.4352 70.2278 31.9087C71.1217 32.3822 72.1874 32.6189 73.425 32.6189C74.5595 32.6189 75.694 32.4244 76.8285 32.0355C77.9802 31.6466 78.9514 30.9617 79.7422 29.981L83.9192 35.2314C83.0597 36.4151 81.6674 37.5058 79.7422 38.5035C77.8341 39.5012 75.5222 40 72.8062 40Z" fill="url(#paint3_linear_309_2299)"/>
<path d="M100.745 31.655C100.745 31.2323 100.59 30.8856 100.281 30.6151C99.9886 30.3445 99.4643 30.0909 98.708 29.8542C97.9516 29.6005 96.8859 29.33 95.5107 29.0425C93.723 28.6536 92.0814 28.104 90.586 27.3938C89.0905 26.6667 87.8958 25.7282 87.002 24.5783C86.1253 23.4284 85.687 22.0419 85.687 20.4185C85.687 18.8459 86.1425 17.3832 87.0535 16.0304C87.9646 14.6777 89.2882 13.5954 91.0243 12.7838C92.7604 11.9552 94.8661 11.5409 97.3414 11.5409C99.8854 11.5409 102.086 11.9214 103.942 12.6823C105.799 13.4432 107.225 14.5001 108.222 15.8529C109.236 17.2057 109.744 18.7867 109.744 20.5961H100.461C100.461 19.5984 100.229 18.8713 99.7651 18.4147C99.301 17.9581 98.4845 17.7299 97.3156 17.7299C96.8343 17.7299 96.3702 17.8144 95.9233 17.9835C95.4935 18.1526 95.1412 18.3978 94.8661 18.7191C94.6083 19.0404 94.4794 19.4462 94.4794 19.9366C94.4794 20.3593 94.6341 20.7398 94.9435 21.078C95.2701 21.3993 95.7514 21.6783 96.3874 21.915C97.0234 22.1518 97.8313 22.3462 98.8111 22.4984C100.65 22.8028 102.395 23.2594 104.045 23.8681C105.713 24.4769 107.071 25.3731 108.119 26.5568C109.168 27.7404 109.692 29.3553 109.692 31.4014C109.692 33.0247 109.185 34.4874 108.171 35.7895C107.174 37.0915 105.747 38.123 103.891 38.884C102.034 39.628 99.8425 40 97.3156 40C94.5997 40 92.3135 39.5181 90.457 38.5542C88.6006 37.5904 87.191 36.3813 86.2284 34.9271C85.283 33.4559 84.8103 31.9848 84.8103 30.5136H93.4738C93.5082 31.2408 93.6886 31.8495 94.0152 32.3399C94.359 32.8134 94.8317 33.1769 95.4334 33.4306C96.035 33.6673 96.7484 33.7857 97.5735 33.7857C98.2782 33.7857 98.8627 33.7011 99.3268 33.532C99.7909 33.3629 100.143 33.1177 100.384 32.7964C100.625 32.4752 100.745 32.0947 100.745 31.655Z" fill="url(#paint4_linear_309_2299)"/>
<defs>
<linearGradient id="paint0_linear_309_2299" x1="54.8718" y1="0" x2="54.8718" y2="40" gradientUnits="userSpaceOnUse">
<stop stop-color="#4177F6" stop-opacity="0"/>
<stop offset="1" stop-color="#1B429F"/>
</linearGradient>
<linearGradient id="paint1_linear_309_2299" x1="54.8718" y1="0" x2="54.8718" y2="40" gradientUnits="userSpaceOnUse">
<stop stop-color="#4177F6" stop-opacity="0"/>
<stop offset="1" stop-color="#1B429F"/>
</linearGradient>
<linearGradient id="paint2_linear_309_2299" x1="54.8718" y1="0" x2="54.8718" y2="40" gradientUnits="userSpaceOnUse">
<stop stop-color="#4177F6" stop-opacity="0"/>
<stop offset="1" stop-color="#1B429F"/>
</linearGradient>
<linearGradient id="paint3_linear_309_2299" x1="54.8718" y1="0" x2="54.8718" y2="40" gradientUnits="userSpaceOnUse">
<stop stop-color="#4177F6" stop-opacity="0"/>
<stop offset="1" stop-color="#1B429F"/>
</linearGradient>
<linearGradient id="paint4_linear_309_2299" x1="54.8718" y1="0" x2="54.8718" y2="40" gradientUnits="userSpaceOnUse">
<stop stop-color="#4177F6" stop-opacity="0"/>
<stop offset="1" stop-color="#1B429F"/>
</linearGradient>
</defs>
</svg>
