<svg width="108" height="40" viewBox="0 0 108 40" fill="none" xmlns="http://www.w3.org/2000/svg">
<path d="M3.90615 39.4927V10.019C3.90615 6.77235 4.87846 4.29507 6.82308 2.58719C8.7677 0.862397 11.3887 0 14.6861 0C15.4471 0 16.1657 0.0591841 16.8421 0.177552C17.5185 0.279011 18.1695 0.405834 18.7952 0.558022L18.8459 7.55866C18.5584 7.47411 18.2541 7.41492 17.9328 7.3811C17.6115 7.34728 17.231 7.33037 16.7914 7.33037C15.6077 7.33037 14.6946 7.56711 14.052 8.04058C13.4094 8.49715 13.0881 9.15663 13.0881 10.019V39.4927H3.90615ZM18.2625 18.643H0V12.0482H18.2625V18.643Z" fill="#4177F6"/>
<path d="M29.1328 39.4927H19.9762V12.0482H29.1328V39.4927ZM19.4689 5.09829C19.4689 3.74551 19.9339 2.64637 20.8639 1.80089C21.794 0.9554 23.003 0.532657 24.4911 0.532657C25.996 0.532657 27.2051 0.9554 28.1182 1.80089C29.0482 2.64637 29.5133 3.74551 29.5133 5.09829C29.5133 6.43416 29.0482 7.53329 28.1182 8.39569C27.2051 9.24117 25.996 9.66392 24.4911 9.66392C23.003 9.66392 21.794 9.24117 20.8639 8.39569C19.9339 7.53329 19.4689 6.43416 19.4689 5.09829Z" fill="#4177F6"/>
<path d="M47.6632 12.0482H57.2764L48.4495 39.4927H42.7678L42.6156 33.1008L47.6632 12.0482ZM44.8984 33.0755L44.797 39.4927H39.1153L30.2884 12.0482H39.9523L44.8984 33.0755Z" fill="#4177F6"/>
<path d="M71.6216 40C68.5778 40 65.9822 39.3828 63.8346 38.1484C61.704 36.914 60.0807 35.2906 58.9646 33.2784C57.8486 31.2492 57.2906 29.0594 57.2906 26.7089V25.7704C57.2906 23.1494 57.7809 20.7652 58.7617 18.6176C59.7425 16.4532 61.2221 14.7368 63.2005 13.4686C65.1789 12.1835 67.6647 11.5409 70.6577 11.5409C73.3125 11.5409 75.5784 12.0905 77.4554 13.1896C79.3324 14.2718 80.7697 15.8275 81.7674 17.8567C82.782 19.8689 83.2893 22.2786 83.2893 25.0856V28.9157H60.7148V23.0564H74.3609V22.3209C74.3779 21.5261 74.2426 20.8751 73.9551 20.3678C73.6676 19.8605 73.2364 19.4885 72.6615 19.2517C72.1035 19.015 71.4102 18.8966 70.5816 18.8966C69.3979 18.8966 68.5102 19.2264 67.9183 19.8859C67.3265 20.5453 66.9291 21.3993 66.7262 22.4477C66.5233 23.4792 66.4218 24.5868 66.4218 25.7704V26.7089C66.4218 27.9264 66.6501 28.9833 67.1067 29.8795C67.5632 30.7588 68.2227 31.4352 69.0851 31.9087C69.9644 32.3822 71.0128 32.6189 72.2303 32.6189C73.3464 32.6189 74.4624 32.4244 75.5784 32.0355C76.7114 31.6466 77.6668 30.9617 78.4446 29.981L82.5537 35.2314C81.7082 36.4151 80.3385 37.5058 78.4446 38.5035C76.5677 39.5012 74.2933 40 71.6216 40Z" fill="#4177F6"/>
<path d="M99.1057 31.655C99.1057 31.2323 98.9535 30.8856 98.6491 30.6151C98.3616 30.3445 97.8459 30.0909 97.1019 29.8542C96.3578 29.6005 95.3094 29.33 93.9566 29.0425C92.198 28.6536 90.5831 28.104 89.112 27.3938C87.6408 26.6667 86.4656 25.7282 85.5863 24.5783C84.7239 23.4284 84.2927 22.0419 84.2927 20.4185C84.2927 18.8459 84.7408 17.3832 85.637 16.0304C86.5333 14.6777 87.8353 13.5954 89.5432 12.7838C91.2511 11.9552 93.3225 11.5409 95.7575 11.5409C98.2602 11.5409 100.425 11.9214 102.251 12.6823C104.077 13.4432 105.481 14.5001 106.461 15.8529C107.459 17.2057 107.958 18.7867 107.958 20.5961H98.8266C98.8266 19.5984 98.5984 18.8713 98.1418 18.4147C97.6852 17.9581 96.882 17.7299 95.7322 17.7299C95.2587 17.7299 94.8021 17.8144 94.3625 17.9835C93.9397 18.1526 93.5931 18.3978 93.3225 18.7191C93.0689 19.0404 92.9421 19.4462 92.9421 19.9366C92.9421 20.3593 93.0942 20.7398 93.3986 21.078C93.7199 21.3993 94.1934 21.6783 94.819 21.915C95.4447 22.1518 96.2395 22.3462 97.2033 22.4984C99.0126 22.8028 100.729 23.2594 102.352 23.8681C103.993 24.4769 105.328 25.3731 106.36 26.5568C107.391 27.7404 107.907 29.3553 107.907 31.4014C107.907 33.0247 107.408 34.4874 106.411 35.7895C105.43 37.0915 104.026 38.123 102.2 38.884C100.374 39.628 98.2179 40 95.7322 40C93.0604 40 90.8114 39.5181 88.9852 38.5542C87.1589 37.5904 85.7723 36.3813 84.8254 34.9271C83.8953 33.4559 83.4303 31.9848 83.4303 30.5136H91.9528C91.9866 31.2408 92.1642 31.8495 92.4855 32.3399C92.8237 32.8134 93.2887 33.1769 93.8805 33.4306C94.4724 33.6673 95.1741 33.7857 95.9858 33.7857C96.6791 33.7857 97.254 33.7011 97.7106 33.532C98.1672 33.3629 98.5138 33.1177 98.7505 32.7964C98.9873 32.4752 99.1057 32.0947 99.1057 31.655Z" fill="#4177F6"/>
</svg>
